<?xml version="1.0" encoding="utf-8"?>
<!-- Generator: Adobe Illustrator 24.2.1, SVG Export Plug-In . SVG Version: 6.00 Build 0)  -->
<svg version="1.1" id="Layer_1" xmlns="http://www.w3.org/2000/svg" xmlns:xlink="http://www.w3.org/1999/xlink" x="0px" y="0px"
	 viewBox="0 0 24 24" style="enable-background:new 0 0 24 24;" xml:space="preserve">
<style type="text/css">
	.st0{fill:#FFFFFF;}
</style>
<path class="st0" d="M24,6.6c-0.1,2.3-1.7,5.5-4.9,9.6c-3.3,4.2-6,6.3-8.3,6.3c-1.4,0-2.6-1.3-3.5-3.9c-1.9-6.9-2.7-11-4.2-11
	c-0.2,0-0.8,0.4-1.9,1.1L0.1,7.4c2.8-2.4,5.4-5.1,7-5.3C9,2,10.1,3.2,10.5,6c1.5,9.7,2.2,11.2,5,6.8c1-1.6,1.5-2.8,1.6-3.6
	c0.3-2.5-1.9-2.3-3.4-1.7c1.2-3.9,3.4-5.7,6.7-5.6C23,1.9,24.1,3.5,24,6.6L24,6.6z"/>
</svg>
