<svg version="1" xmlns="http://www.w3.org/2000/svg" width="333.333" height="333.333" viewBox="0 0 250.000000 250.000000"><path d="M0 125v125h250V0H0v125zm61.2-23.8c5.1 1.5 12.6 8.2 14.9 13.3 1.2 2.6 1.9 6.3 1.9 10.5 0 8.3-2.3 13.3-8.3 18.6-13.5 11.9-34.4 6.4-40.2-10.5-6.7-19.6 11.6-38 31.7-31.9zm71.9.2c14.2 5 20.7 22.1 13.4 35.4-9.6 17.7-34.4 17.7-44 0-7.3-13.3-.8-30.4 13.4-35.4 2-.7 5.9-1.3 8.6-1.3 2.8 0 6.6.6 8.6 1.3zm74.7 1.2c6.1 3 10.5 8 12.7 14.3 6.7 19.6-11.6 38-31.7 31.9-5.4-1.6-13.2-8.8-15.3-14-2.1-5.4-2.1-14.3.1-19.7 1.9-4.8 9.8-12.3 14.6-13.8 6.3-2 14-1.5 19.6 1.3z"/></svg>