<?xml version="1.0" encoding="utf-8"?>
<!-- Generator: Adobe Illustrator 24.2.1, SVG Export Plug-In . SVG Version: 6.00 Build 0)  -->
<svg version="1.1" id="Layer_1" xmlns="http://www.w3.org/2000/svg" xmlns:xlink="http://www.w3.org/1999/xlink" x="0px" y="0px"
	 viewBox="0 0 24 24" style="enable-background:new 0 0 24 24;" xml:space="preserve">
<style type="text/css">
	.st0{fill:#FF5722;}
	.st1{fill:#FFFFFF;}
	.st2{fill:#FFCA28;}
	.st3{fill:#363636;}
	.st4{fill:#00C853;}
</style>
<rect id="red" x="3.3" y="11.3" class="st0" width="17.4" height="11.3"/>
<path id="wht" class="st1" d="M7.4,1.9h9.1l0,0v9.6c0,2.5-2,4.5-4.5,4.5l0,0c-2.5,0-4.5-2-4.5-4.5l0,0L7.4,1.9L7.4,1.9L7.4,1.9z"/>
<path id="yellow" class="st2" d="M16.5,11.3v0.2c0,2.4-2,4.5-4.5,4.5s-4.5-2-4.5-4.5l0,0v-0.2H16.5z"/>
<path id="btns" class="st1" d="M6.9,20.2H6.1v-0.7h0.8V20.2z M8.5,19.6H7.6v0.7h0.9V19.6z M10,19.6H9.2v0.7H10V19.6z M11.6,19.6
	h-0.8v0.7h0.8V19.6z M13.2,19.6h-0.8v0.7h0.8V19.6z M14.8,19.6H14v0.7h0.8V19.6z M16.3,19.6h-0.8v0.7h0.8V19.6z M17.9,19.6h-0.8v0.7
	h0.8V19.6z M6.9,18.2H6.1v0.7h0.8V18.2z M8.5,18.2H7.6v0.7h0.9V18.2z M10,18.2H9.2v0.7H10V18.2z M11.6,18.2h-0.8v0.7h0.8V18.2z
	 M13.2,18.2h-0.8v0.7h0.8V18.2z M14.8,18.2H14v0.7h0.8V18.2z M16.3,18.2h-0.8v0.7h0.8V18.2z M17.9,18.2h-0.8v0.7h0.8V18.2z"/>
<path id="black" class="st3" d="M22.2,10.1V9.4h-2.9V9V7.8v-1h-0.7v1h-1.8V1.5H7.1l0.1,6.2H5.3v-1H4.6v1V9v0.4H1.8v0.7h2.9v0.9H2.9
	v12H21v-12h-1.7v-0.9H22.2z M18.7,9v0.4h-0.5V8.5h0.5V9z M17.6,8.5v0.9h-0.7V8.5H17.6z M5.3,11.6h0.5c0.1,3.4,2.8,6.1,6.2,6.1
	s6.2-2.7,6.2-6.1h0.5V21H5.3V11.6z M7.9,11.6h8.2c-0.1,2.2-1.9,4-4.1,4C9.8,15.6,8,13.9,7.9,11.6z M16.2,10.9H7.9l0-0.9h8.3V10.9z
	 M7.2,10.9H6.5v-0.9h0.7L7.2,10.9z M7.2,11.6c0.1,2.6,2.2,4.7,4.8,4.7c0,0,0,0,0,0c0,0,0,0,0,0c2.6,0,4.8-2.1,4.8-4.7h0.7
	c-0.1,3-2.5,5.4-5.5,5.4c-3,0-5.5-2.4-5.5-5.4H7.2z M16.9,10.9v-0.9h0.7v0.9H16.9z M16.2,2.2v7.1H7.9L7.8,2.2H16.2z M7.2,9.4H6.5
	V8.5h0.7L7.2,9.4z M5.3,9V8.5h0.4v0.9H5.3V9z M5.3,10.1h0.4v0.9H5.3V10.1z M20.4,11.6v10.6H3.6V11.6h1v10h14.8v-10H20.4z M18.7,10.9
	h-0.5v-0.9h0.5V10.9z M15.2,3.8H8.8V3h6.4V3.8z M11.6,5.1V4.4h1.5v0.7H11.6z M10.7,5.1H8.8V4.4h1.9V5.1z M8.8,6.4V5.6h5v0.7H8.8z"/>
<path id="green" class="st4" d="M23.8,8.1v3.3h-1.6V8.1H23.8z M0.3,11.4h1.6V8.1H0.3V11.4z"/>
</svg>
