<?xml version="1.0" encoding="utf-8"?>
<!-- Generator: Adobe Illustrator 24.2.1, SVG Export Plug-In . SVG Version: 6.00 Build 0)  -->
<svg version="1.1" id="Layer_2_1_" xmlns="http://www.w3.org/2000/svg" xmlns:xlink="http://www.w3.org/1999/xlink" x="0px" y="0px"
	 viewBox="0 0 24 24" style="enable-background:new 0 0 24 24;" xml:space="preserve">
<style type="text/css">
	.st0{fill:#FFCA28;stroke:#363636;stroke-width:0.7491;stroke-linejoin:round;}
	.st1{fill:#00C853;stroke:#363636;stroke-width:0.612;stroke-linejoin:round;}
	.st2{fill:none;stroke:#00C853;stroke-width:1.4983;stroke-linejoin:round;}
	.st3{fill:none;stroke:#363636;stroke-width:0.7491;stroke-linejoin:round;}
	.st4{fill:#FF5722;stroke:#363636;stroke-width:0.7491;stroke-linejoin:round;}
	.st5{fill:#FFFFFF;}
	.st6{fill:#DFECF0;stroke:#363636;stroke-width:0.7491;stroke-linejoin:round;}
</style>
<path class="st0" d="M4.3,12.3h2.1c0.4,0,0.6,0.3,0.6,0.6v6.9c0,0.4-0.3,0.6-0.6,0.6H4.3c-0.4,0-0.6-0.3-0.6-0.6v-6.9
	C3.7,12.6,4,12.3,4.3,12.3z"/>
<path class="st1" d="M3.6,19.3c-1.6,0-2.9-1.3-2.9-2.9l0,0c0-1.6,1.3-2.9,2.9-2.9V19.3z"/>
<path class="st0" d="M19.7,20.5h-2.1c-0.4,0-0.6-0.3-0.6-0.6v-6.9c0-0.4,0.3-0.6,0.6-0.6h2.1c0.4,0,0.6,0.3,0.6,0.6v6.9
	C20.4,20.2,20.1,20.5,19.7,20.5z"/>
<path class="st1" d="M20.4,13.5c1.6,0,2.9,1.3,2.9,2.9l0,0l0,0c0,1.6-1.3,2.9-2.9,2.9L20.4,13.5z"/>
<path class="st2" d="M6.3,6.2C9.4,3,14.4,2.9,17.6,6c0,0,0.1,0.1,0.1,0.1"/>
<path class="st3" d="M4.1,7.8c2.2-4.4,7.5-6.2,11.9-4c1.6,0.8,3,2.1,3.8,3.7"/>
<circle class="st4" cx="11.9" cy="11.5" r="3.7"/>
<line class="st3" x1="9.5" y1="17.5" x2="10.4" y2="17.5"/>
<line class="st3" x1="11.4" y1="17.5" x2="12.4" y2="17.5"/>
<line class="st3" x1="13.4" y1="17.5" x2="14.3" y2="17.5"/>
<polygon class="st5" points="11,13.2 11,10 13.9,11.6 "/>
<circle class="st6" cx="4.1" cy="8.6" r="1.4"/>
<path class="st3" d="M2.2,13.7C1.8,12.5,2,10.3,2.9,9.4"/>
<path class="st3" d="M21.7,13.7c0.4-1.3,0.2-3.4-0.7-4.3"/>
<circle class="st6" cx="19.8" cy="8.6" r="1.4"/>
</svg>
