<?xml version="1.0" encoding="utf-8"?>
<!-- Generator: Adobe Illustrator 24.2.1, SVG Export Plug-In . SVG Version: 6.00 Build 0)  -->
<svg version="1.1" id="Layer_2_1_" xmlns="http://www.w3.org/2000/svg" xmlns:xlink="http://www.w3.org/1999/xlink" x="0px" y="0px"
	 viewBox="0 0 24 24" style="enable-background:new 0 0 24 24;" xml:space="preserve">
<style type="text/css">
	.st0{fill:#FFCA28;}
	.st1{fill:#00C853;}
	.st2{fill:#FF5722;}
	.st3{fill:#DFECF0;}
	.st4{fill:#363636;}
	.st5{fill:#FFFFFF;}
</style>
<path id="yellow" class="st0" d="M7,12.9v6.9c0,0.4-0.3,0.6-0.6,0.6H4.3c-0.4,0-0.6-0.3-0.6-0.6v-6.9c0-0.3,0.3-0.6,0.6-0.6h2.1
	C6.8,12.3,7,12.6,7,12.9z M20.3,19.9V13c0-0.3-0.2-0.6-0.6-0.6h-2.1c-0.3,0-0.6,0.2-0.6,0.6v6.9c0,0.3,0.2,0.6,0.6,0.6h2.1
	C20.1,20.5,20.4,20.2,20.3,19.9z"/>
<path id="green" class="st1" d="M23.3,16.4c0,1.6-1.3,2.9-2.9,2.9v-5.8C22,13.5,23.3,14.8,23.3,16.4z M0.7,16.4
	c0,1.6,1.3,2.9,2.9,2.9v-5.8C2,13.5,0.7,14.8,0.7,16.4z M11.9,3C9.6,3,7.4,4,5.8,5.7l1.1,1c1.4-1.4,3.2-2.2,5.1-2.2
	c1.9,0,3.7,0.7,5.1,2l0.1,0.1l1.1-1.1l-0.1-0.1C16.4,3.8,14.2,2.9,11.9,3z"/>
<circle class="st2" cx="11.9" cy="11.5" r="3.7"/>
<path id="light" class="st3" d="M5.5,8.6c0,0.8-0.6,1.4-1.4,1.4S2.7,9.4,2.7,8.6s0.6-1.4,1.4-1.4S5.5,7.8,5.5,8.6z M19.8,7.2
	c-0.8,0-1.4,0.6-1.4,1.4S19,10,19.8,10s1.4-0.6,1.4-1.4S20.6,7.2,19.8,7.2z"/>
<path id="black" class="st4" d="M23.6,16.4c0-1.1-0.6-2.1-1.5-2.7c0.4-1.3,0.2-3.3-0.7-4.4c0.1-0.2,0.2-0.5,0.2-0.7
	c0-1-0.8-1.8-1.8-1.8c-0.8-1.4-2.1-2.6-3.7-3.4C14,2.4,11.4,2.2,9.1,3C7.1,3.7,5.4,5,4.2,6.8c0,0-0.1,0-0.1,0c-1,0-1.8,0.8-1.8,1.8
	c0,0.3,0.1,0.5,0.2,0.7c-0.8,1.1-1.1,3.1-0.7,4.4c-0.9,0.6-1.4,1.6-1.4,2.7c0,1.7,1.3,3,2.9,3.2v0.2c0,0.5,0.3,1,1,1h2.1
	c0.5,0,1-0.3,1-1v-6.9c0-0.5-0.3-1-1-1H4.3c-0.5,0-1,0.5-1,1v0.3c-0.3,0-0.6,0.1-0.8,0.2c-0.3-1-0.1-2.6,0.4-3.5
	c0.3,0.3,0.7,0.4,1.1,0.4c1,0,1.8-0.8,1.8-1.8c0-0.7-0.4-1.2-0.9-1.5c2.3-3.5,7-4.9,10.9-2.9c1.4,0.7,2.5,1.7,3.2,2.9
	c-0.6,0.3-1,0.9-1,1.6c0,1,0.8,1.8,1.8,1.8c0.4,0,0.8-0.2,1.1-0.4c0.6,0.8,0.7,2.4,0.4,3.4c-0.2-0.1-0.5-0.1-0.7-0.1V13
	c0-0.5-0.3-1-1-1h-2.1c-0.5,0-1,0.3-1,1v6.9c0,0.5,0.3,1,1,1h2.1c0.3,0,0.7-0.2,0.8-0.4c0.1-0.2,0.2-0.4,0.1-0.6v-0.3
	C22.3,19.4,23.6,18.1,23.6,16.4z M4.1,12.9c0-0.1,0.1-0.2,0.2-0.2h2.1c0.2,0,0.2,0.1,0.2,0.2v6.9C6.6,20,6.5,20,6.4,20H4.3
	c-0.2,0-0.2-0.1-0.2-0.2V12.9z M3.3,19C2,18.8,1,17.7,1,16.4c0-1.3,1-2.4,2.3-2.6V19z M4.1,9.6c-0.6,0-1-0.5-1-1s0.5-1,1-1
	s1,0.5,1,1S4.7,9.6,4.1,9.6z M19.8,9.6c-0.6,0-1-0.5-1-1s0.5-1,1-1s1,0.5,1,1S20.4,9.6,19.8,9.6z M20.7,13.8C22,14,23,15.1,23,16.4
	c0,1.3-1,2.4-2.3,2.6V13.8z M19.7,20.1h-2.1c-0.2,0-0.2-0.1-0.2-0.2V13c0-0.2,0.1-0.2,0.2-0.2h2.1c0.2,0,0.2,0.1,0.2,0.2v6.9
	c0,0,0,0.1,0,0.1C19.9,20,19.9,20.1,19.7,20.1z M11.9,7.4c-2.2,0-4.1,1.8-4.1,4.1c0,2.2,1.8,4.1,4.1,4.1s4.1-1.8,4.1-4.1
	C16,9.3,14.1,7.4,11.9,7.4z M11.9,14.8c-1.8,0-3.3-1.5-3.3-3.3s1.5-3.3,3.3-3.3s3.3,1.5,3.3,3.3S13.7,14.8,11.9,14.8z M9.5,17.1h0.9
	v0.8H9.5V17.1z M11.4,17.1h1v0.8h-1V17.1z M13.4,17.1h0.9v0.8h-0.9V17.1z"/>
<polygon id="play" class="st5" points="11,13.2 11,10 13.9,11.6 "/>
</svg>
