<?xml version="1.0" encoding="utf-8"?>
<!-- Generator: Adobe Illustrator 24.2.1, SVG Export Plug-In . SVG Version: 6.00 Build 0)  -->
<svg version="1.1" id="Layer_2_1_" xmlns="http://www.w3.org/2000/svg" xmlns:xlink="http://www.w3.org/1999/xlink" x="0px" y="0px"
	 viewBox="0 0 24 24" style="enable-background:new 0 0 24 24;" xml:space="preserve">
<style type="text/css">
	.st0{fill:#FF5722;}
	.st1{fill:#FFFFFF;}
	.st2{fill:#DFECF0;}
	.st3{fill:#00C853;}
	.st4{fill:#FFCA28;}
	.st5{fill:#8FA1B7;}
	.st6{fill:#363636;}
</style>
<rect id="red" x="0.5" y="3.8" class="st0" width="23.1" height="14.9"/>
<rect id="w" x="2.3" y="5.6" class="st1" width="19.6" height="13.1"/>
<path id="body" class="st2" d="M23.6,18.8h-8.9l0.4,2.2h1.2v1.4H7.7V21H9l0.4-2.2H0.5V16h23.1V18.8z"/>
<path id="green" class="st3" d="M10.3,4.1v11.7h-2H6.2V4.1L8.3,6L10.3,4.1z"/>
<polygon class="st4" points="6.2,4.1 8.3,6 10.3,4.1 8.3,0.9 "/>
<polygon class="st5" points="9.4,2.8 7.1,2.8 8.3,1 "/>
<rect x="13.7" y="1" class="st4" width="4.1" height="15"/>
<path class="st6" d="M22.5,17.6h-0.8V17h0.8V17.6z M24,3.4v12.2v3.5v0.1h-8.8l0.3,1.4h1.3v2.2H7.3v-2.2h1.4l0.3-1.4H0.1v-0.1v-3.5
	V3.4h6.2L8,0.7c0.1-0.1,0.1-0.1,0.3-0.1c0.1,0,0.2,0.1,0.3,0.1l1.7,2.7h3.2V1c0-0.2,0.1-0.3,0.3-0.3h4.1c0.2,0,0.3,0.1,0.3,0.3v2.4
	H24z M14,15.6h3.5v-1.4h-1.2v-0.6h1.2v-1.3h-1.2v-0.6h1.2v-1.2h-1.2V9.9h1.2V8.6h-1.2V8h1.2V6.8h-1.2V6.2h1.2V4.9h-1.2V4.3h1.2V3.1
	h-1.2V2.5h1.2V1.3H14V15.6z M10.6,15.6h2.8V4.2h-2.8V15.6z M7.7,2.5h1.2L8.3,1.6L7.7,2.5z M6.7,4.2L8,5.3l0.3,0.2l1.5-1.4l0.1-0.1
	L9.5,3.4L9.3,3.1H7.2L6.6,4L6.7,4.2z M8.6,6.1v9.4H10V4.8L8.6,6.1z M6.5,15.5H8V6.1L6.5,4.8V15.5z M0.9,15.6h5V4.2h-5V15.6z
	 M8.6,21.4H8.1V22h7.8v-0.6h-0.4H8.6z M14.7,20.6l-0.3-1.4H9.7l-0.3,1.4H14.7z M23.2,16.4H0.9v1.9h8.2H15h8.2V16.4z M23.2,4.2h-5.1
	v11.4h5.1V4.2z M13.7,17h-3.6v0.6h3.6V17z M21.2,17h-0.8v0.6h0.8V17z"/>
</svg>
