<?xml version="1.0" encoding="utf-8"?>
<!-- Generator: Adobe Illustrator 24.2.1, SVG Export Plug-In . SVG Version: 6.00 Build 0)  -->
<svg version="1.1" id="Layer_2_1_" xmlns="http://www.w3.org/2000/svg" xmlns:xlink="http://www.w3.org/1999/xlink" x="0px" y="0px"
	 viewBox="0 0 24 24" style="enable-background:new 0 0 24 24;" xml:space="preserve">
<style type="text/css">
	.st0{fill:#FF5722;stroke:#363636;stroke-width:0.7529;stroke-miterlimit:10;}
	.st1{fill:#FFFFFF;}
	.st2{fill:#DFECF0;stroke:#363636;stroke-width:0.7529;stroke-miterlimit:10;}
	.st3{fill:#00C853;stroke:#363636;stroke-width:0.615;stroke-linejoin:round;}
	.st4{fill:#FFCA28;stroke:#363636;stroke-width:0.615;stroke-linejoin:round;}
	.st5{fill:#8FA1B7;stroke:#363636;stroke-width:0.615;stroke-linejoin:round;}
	.st6{fill:none;stroke:#363636;stroke-width:0.615;stroke-linejoin:round;}
</style>
<rect x="0.5" y="3.8" class="st0" width="23.1" height="14.9"/>
<rect x="2.3" y="5.6" class="st1" width="19.6" height="13.1"/>
<rect x="0.5" y="16" class="st2" width="23.1" height="2.8"/>
<rect x="7.7" y="21" class="st2" width="8.6" height="1.4"/>
<polygon class="st2" points="15.1,21 9,21 9.4,18.7 14.7,18.7 "/>
<polygon class="st3" points="10.3,15.8 8.3,15.8 8.3,6 10.3,4.1 "/>
<polygon class="st3" points="8.3,15.8 6.2,15.8 6.2,4.1 8.3,6 "/>
<polygon class="st4" points="6.2,4.1 8.3,6 10.3,4.1 8.3,0.9 "/>
<polygon class="st5" points="9.4,2.8 7.1,2.8 8.3,1 "/>
<rect x="13.7" y="1" class="st4" width="4.1" height="15"/>
<line class="st6" x1="16.3" y1="2.8" x2="17.9" y2="2.8"/>
<line class="st6" x1="16.3" y1="4.6" x2="17.9" y2="4.6"/>
<line class="st6" x1="16.3" y1="6.5" x2="17.9" y2="6.5"/>
<line class="st6" x1="16.3" y1="8.3" x2="17.9" y2="8.3"/>
<line class="st6" x1="16.3" y1="10.2" x2="17.9" y2="10.2"/>
<line class="st6" x1="16.3" y1="12" x2="17.9" y2="12"/>
<line class="st6" x1="16.3" y1="13.9" x2="17.9" y2="13.9"/>
<line class="st6" x1="10.1" y1="17.3" x2="13.7" y2="17.3"/>
<line class="st6" x1="20.4" y1="17.3" x2="21.2" y2="17.3"/>
<line class="st6" x1="21.7" y1="17.3" x2="22.5" y2="17.3"/>
</svg>
