<?xml version="1.0" encoding="utf-8"?>
<!-- Generator: Adobe Illustrator 24.2.1, SVG Export Plug-In . SVG Version: 6.00 Build 0)  -->
<svg version="1.1" id="Layer_3" xmlns="http://www.w3.org/2000/svg" xmlns:xlink="http://www.w3.org/1999/xlink" x="0px" y="0px"
	 viewBox="0 0 24 24" style="enable-background:new 0 0 24 24;" xml:space="preserve">
<style type="text/css">
	.st0{fill:none;stroke:#363636;stroke-width:0.7732;stroke-linejoin:round;}
	.st1{fill:#FF5722;stroke:#363636;stroke-width:0.7732;stroke-miterlimit:10;}
	.st2{fill:#FFCA28;}
	.st3{fill:#FFFFFF;}
	.st4{fill:#FF5722;}
	.st5{fill:#00C853;}
	.st6{fill:none;stroke:#DFECF0;stroke-width:0.7732;stroke-linejoin:round;}
</style>
<line class="st0" x1="3.1" y1="2" x2="3.1" y2="21.9"/>
<line class="st0" x1="5.8" y1="2" x2="5.8" y2="21.9"/>
<line class="st0" x1="3.1" y1="3.4" x2="5.8" y2="3.4"/>
<line class="st0" x1="3.1" y1="5.6" x2="5.8" y2="5.6"/>
<line class="st0" x1="3.1" y1="7.7" x2="5.8" y2="7.7"/>
<line class="st0" x1="3.1" y1="9.8" x2="5.8" y2="9.8"/>
<line class="st0" x1="3.1" y1="11.9" x2="5.8" y2="11.9"/>
<line class="st0" x1="3.1" y1="14.1" x2="5.8" y2="14.1"/>
<line class="st0" x1="3.1" y1="16.2" x2="5.8" y2="16.2"/>
<line class="st0" x1="3.1" y1="18.3" x2="5.8" y2="18.3"/>
<line class="st0" x1="3.1" y1="20.4" x2="5.8" y2="20.4"/>
<line class="st0" x1="17.9" y1="2" x2="17.9" y2="21.9"/>
<line class="st0" x1="20.6" y1="2" x2="20.6" y2="21.9"/>
<line class="st0" x1="17.9" y1="3.4" x2="20.6" y2="3.4"/>
<line class="st0" x1="17.9" y1="5.6" x2="20.6" y2="5.6"/>
<line class="st0" x1="17.9" y1="7.7" x2="20.6" y2="7.7"/>
<line class="st0" x1="17.9" y1="9.8" x2="20.6" y2="9.8"/>
<line class="st0" x1="17.9" y1="11.9" x2="20.6" y2="11.9"/>
<line class="st0" x1="17.9" y1="14.1" x2="20.6" y2="14.1"/>
<line class="st0" x1="17.9" y1="16.2" x2="20.6" y2="16.2"/>
<line class="st0" x1="17.9" y1="18.3" x2="20.6" y2="18.3"/>
<line class="st0" x1="17.9" y1="20.4" x2="20.6" y2="20.4"/>
<rect x="5.8" y="7.7" class="st1" width="12.2" height="8.5"/>
<rect x="6.9" y="2" class="st2" width="9.9" height="4.6"/>
<rect x="6.9" y="17.3" class="st2" width="9.9" height="4.6"/>
<polygon class="st3" points="10.4,14 10.4,9.9 14.1,11.9 "/>
<polygon class="st4" points="0.1,11.1 0.1,8.5 2.3,9.8 "/>
<polygon class="st5" points="0.1,19.6 0.1,17 2.3,18.3 "/>
<polygon class="st5" points="23.8,14.9 23.8,17.5 21.5,16.2 "/>
<polygon class="st4" points="23.8,4.3 23.8,6.8 21.5,5.5 "/>
<line class="st6" x1="23.4" y1="8.1" x2="23.4" y2="13.6"/>
<line class="st6" x1="0.5" y1="12.3" x2="0.5" y2="15.7"/>
</svg>
