<?xml version="1.0" encoding="utf-8"?>
<!-- Generator: Adobe Illustrator 24.2.1, SVG Export Plug-In . SVG Version: 6.00 Build 0)  -->
<svg version="1.1" id="Layer_3" xmlns="http://www.w3.org/2000/svg" xmlns:xlink="http://www.w3.org/1999/xlink" x="0px" y="0px"
	 viewBox="0 0 24 24" style="enable-background:new 0 0 24 24;" xml:space="preserve">
<style type="text/css">
	.st0{fill:#FF5722;}
	.st1{fill:#363636;}
	.st2{fill:#FFCA28;}
	.st3{fill:#00C853;}
	.st4{fill:#DFECF0;}
	.st5{fill:#FFFFFF;}
</style>
<rect id="red" x="5.8" y="7.7" class="st0" width="12.2" height="8.5"/>
<path id="black" class="st1" d="M20.2,2v1h-1.9V2h-0.8v5.3H6.2V2H5.4v1H3.5V2H2.7v19.9h0.8v-1.1h1.9v1.1h0.8v-5.3h11.3v5.3h0.8v-1.1
	h1.9v1.1H21V2H20.2z M20.2,3.8v1.4h-1.9V3.8H20.2z M18.4,16.6h1.8v1.3h-1.9L18.4,16.6L18.4,16.6z M18.4,15.8v-1.3h1.8v1.3H18.4z
	 M18.4,13.7v-1.4h1.8v1.4H18.4z M18.4,11.5v-1.3h1.8v1.3H18.4z M18.4,9.4V8.1h1.8v1.3H18.4z M18.4,7.3L18.4,7.3L18.3,6h1.9v1.3H18.4
	z M5.4,15.8H3.5v-1.3h1.9V15.8z M5.4,17.9H3.5v-1.3h1.9V17.9z M5.4,13.7H3.5v-1.4h1.9V13.7z M5.4,11.5H3.5v-1.3h1.9V11.5z M5.4,9.4
	H3.5V8.1h1.9V9.4z M3.5,7.3V6h1.9v1.3H3.5z M5.4,3.8v1.4H3.5V3.8H5.4z M3.5,20v-1.3h1.9V20H3.5z M6.2,15.8V8.1h11.3v7.7H6.2z
	 M18.3,20v-1.3h1.9V20H18.3z"/>
<path id="yellow" class="st2" d="M16.8,2v4.6H6.9V2H16.8z M6.9,21.9h9.9v-4.6H6.9V21.9z"/>
<path id="green" class="st3" d="M0.1,17l2.2,1.3l-2.2,1.3V17z M21.5,16.2l2.3,1.3v-2.6L21.5,16.2z"/>
<path id="red_1_" class="st0" d="M0.1,8.5l2.2,1.3l-2.2,1.3V8.5z M21.5,5.5l2.3,1.3V4.3L21.5,5.5z"/>
<path id="grey" class="st4" d="M23.8,8.1v5.5H23V8.1H23.8z M0.1,15.7h0.8v-3.4H0.1V15.7z"/>
<polygon id="play" class="st5" points="10.4,14 10.4,9.9 14.1,11.9 "/>
</svg>
