<?xml version="1.0" encoding="utf-8"?>
<svg class="icon" version="1.1" id="Layer_1" xmlns="http://www.w3.org/2000/svg" xmlns:xlink="http://www.w3.org/1999/xlink" x="0px" y="0px"
	 viewBox="0 0 292.7 49" style="enable-background:new 0 0 292.7 49;" xml:space="preserve">
<style type="text/css">
	.icon {fill:#DB3643;}
</style>

<path class="st0" d="M33.2,25.9c2,2.2,3,5,3,8.3c0,4.5-1.6,8.1-4.9,10.8c-3.3,2.7-7.4,4-12.4,4c-4.3,0-8-1-11.3-2.9
	s-5.8-4.5-7.5-7.7l8.3-6.3c3,4.1,6.5,6.1,10.5,6.1c3.2,0,4.9-1.1,4.9-3.4c0-1.1-0.3-1.8-1-2.4c-0.7-0.5-1.9-1.2-3.8-2l-5-2.2
	C6,24.7,2,20,2,13.9C2,9.7,3.5,6.3,6.6,3.8C9.8,1.3,13.8,0,18.6,0c7.6,0,13,3.2,16.2,9.5l-8.2,6.3c-1.1-1.7-2.3-3-3.5-3.8
	s-2.6-1.2-4.3-1.2c-2.8,0-4.2,1-4.2,3c0,0.9,0.3,1.6,0.9,2.1c0.6,0.6,1.7,1.1,3.2,1.8l5.4,2.3C28.2,21.7,31.2,23.7,33.2,25.9z
	 M69,24.6L48.9,0H45v48.2h12.3V28.4L67,39.8h3.9l9.8-11.5v19.9H93V0h-3.9L69,24.6z M243.1,4.1V0.9h-36.4V12h17.6l-20.7,33v3.2h39.6
	V37h-20.9L243.1,4.1z M279.1,0.9l-8.8,16.5l-8.8-16.5h-13.6l16.3,29.3v18h12.3V30l16.2-29.2h-13.6V0.9z M116.6,13
	c-6.7,0-12.2,5.5-12.2,12.2s5.5,12.2,12.2,12.2s12.2-5.5,12.2-12.2S123.3,13,116.6,13z M150.1,13c-6.7,0-12.2,5.5-12.2,12.2
	s5.5,12.2,12.2,12.2s12.2-5.5,12.2-12.2S156.8,13,150.1,13z M183.6,13c-6.7,0-12.2,5.5-12.2,12.2s5.5,12.2,12.2,12.2
	s12.2-5.5,12.2-12.2S190.3,13,183.6,13z"/>
</svg>