<?xml version="1.0" encoding="utf-8"?>
<!-- Generator: Adobe Illustrator 24.2.1, SVG Export Plug-In . SVG Version: 6.00 Build 0)  -->
<svg version="1.1" id="Layer_1" xmlns="http://www.w3.org/2000/svg" xmlns:xlink="http://www.w3.org/1999/xlink" x="0px" y="0px"
	 viewBox="0 0 292.7 70" style="enable-background:new 0 0 292.7 70;" xml:space="preserve">
<style type="text/css">
	.st0{fill:#DB3643;}
	.st1{fill:#FFFFFF;}
</style>
<rect class="st0" width="292.7" height="70"/>
<path class="st1" d="M40.4,36.3c1.9,2.1,2.8,4.7,2.8,7.8c0,4.2-1.5,7.6-4.6,10.1c-3.1,2.5-6.9,3.7-11.6,3.7c-4,0-7.5-0.9-10.6-2.7
	c-3.1-1.8-5.4-4.2-7-7.2l7.8-5.9c2.8,3.8,6.1,5.7,9.8,5.7c3,0,4.5-1.1,4.5-3.2c0-1-0.3-1.7-0.9-2.2c-0.6-0.5-1.8-1.1-3.5-1.9l-4.5-2
	c-7.4-3.3-11.2-7.7-11.2-13.3c0-3.9,1.4-7.1,4.3-9.5c2.9-2.4,6.6-3.6,11.1-3.6c7.1,0,12.1,3,15.1,8.9l-7.7,5.9
	c-1.1-1.6-2.2-2.8-3.3-3.5c-1.1-0.8-2.5-1.1-4-1.1c-2.6,0-3.9,0.9-3.9,2.8c0,0.8,0.3,1.5,0.8,2c0.6,0.5,1.5,1.1,3,1.6l5.1,2.1
	C35.7,32.4,38.5,34.2,40.4,36.3z M73.8,35.1L55,12.1h-3.7v44.9h11.5V38.6l9.1,10.6h3.7l9.2-10.7v18.5h11.5V12.1h-3.7L73.8,35.1z
	 M236.3,15.9v-3h-34v10.4h16.5l-19.3,30.8v3h36.9V46.7h-19.5L236.3,15.9z M269.9,12.9l-8.2,15.4l-8.2-15.4h-12.7l15.2,27.4v16.8
	h11.5V40.2l15.1-27.2H269.9z M118.2,24.3c-6.3,0-11.4,5.1-11.4,11.4S111.9,47,118.2,47c6.3,0,11.4-5.1,11.4-11.4
	S124.4,24.3,118.2,24.3z M149.4,24.3c-6.3,0-11.4,5.1-11.4,11.4S143.2,47,149.4,47c6.3,0,11.4-5.1,11.4-11.4S155.7,24.3,149.4,24.3z
	 M180.7,24.3c-6.3,0-11.4,5.1-11.4,11.4S174.4,47,180.7,47c6.3,0,11.4-5.1,11.4-11.4S187,24.3,180.7,24.3z"/>
</svg>
